# xmcd
#
# Track frame offsets:
#	196
#	13637
#	26221
#	38936
#	50850
#	63846
#	77090
#	90362
#	101792
#	114693
#	129978
#	141223
#	155840
#	169653
#	183339
#	195927
#	208923
#	222489
#	237711
#	250419
#	264015
#	276525
#
# Disc length: 3850 seconds
# Revision: 3
# Processed by: cddbd v1.5.2PL0 Copyright (c) Steve Scherf et al.
# Submitted via: dBpowerAMP V12.0
#
DISCID=4a0f0816
DTITLE=Various Artist - Soul! The Very Best Of Motown [Cd 2]
DYEAR=2002
DGENRE=Soul
TTITLE0=Kim Weston and Marvin Gaye - It Takes Two
TTITLE1=The Four Tops - I Can't Help Myself (Sugar Pie, Honey Bunch)
TTITLE2=Jr. Walker and The All Stars - (I'm A) Road Runner
TTITLE3=The Supremes - Baby Love
TTITLE4=The Miracles - Shop Around
TTITLE5=Jimmy Ruffin - What Becomes Of The Brokenhearted
TTITLE6=Gladys Knight and The Pips - I Heard It Through The Grapevine
TTITLE7=The Marvelettes - Please Mr Postman
TTITLE8=The Supremes - Stop! In the Name Of Love
TTITLE9=Edwin Starr - Twenty Five Miles
TTITLE10=Marvin Gaye and Tammi Terrell - Ain't No Mountain High Enough
TTITLE11=The Spinners - It's A Shame
TTITLE12=Smokey Robinson and The Miracles - The Tracks Of My Tears
TTITLE13=Jr. Walker and The All Stars - How Sweet It Is (To Be Loved By You)
TTITLE14=The Four Tops - It's The Same Old Song
TTITLE15=The Supremes - Your Can't Hurry Love
TTITLE16=The Jackson 5 - I Want You Back
TTITLE17=Edwin Starr - War
TTITLE18=Martha Reeves and The Vandellas - (Love Is Like A) Heat Wave
TTITLE19=Smokey Robinson and The Miracles - The Tears Of A Clown
TTITLE20=Stevie Wonder - For Once In My Life
TTITLE21=The Temptations - My Girl
EXTD=
EXTT0=
EXTT1=
EXTT2=
EXTT3=
EXTT4=
EXTT5=
EXTT6=
EXTT7=
EXTT8=
EXTT9=
EXTT10=
EXTT11=
EXTT12=
EXTT13=
EXTT14=
EXTT15=
EXTT16=
EXTT17=
EXTT18=
EXTT19=
EXTT20=
EXTT21=
PLAYORDER=
